<svg xmlns="http://www.w3.org/2000/svg" viewBox="0 0 233.87 284.86"><defs><style>.cls-1{fill:#f3f5f6;}</style></defs><title>iteration_logo_white_light</title><g id="Layer_2" data-name="Layer 2"><g id="Layer_1-2" data-name="Layer 1"><path class="cls-1" d="M101.59,82.39v22.73h0v22.73h22.74V108.58a78.51,78.51,0,1,1-101.6,75c0-.12,0-.23,0-.35H0v.35A101.24,101.24,0,1,0,101.59,82.39Z"/><path class="cls-1" d="M147.58,0a86.29,86.29,0,0,0-.3,172.57V153.2a66.91,66.91,0,1,1,64.45-86H195.11V86.59h38.75c0-.1,0-.2,0-.3A86.29,86.29,0,0,0,147.58,0Z"/></g></g></svg>